<?xml version="1.0" encoding="iso-8859-1"?>
<!-- Generator: Adobe Illustrator 19.0.0, SVG Export Plug-In . SVG Version: 6.00 Build 0)  -->
<svg version="1.1" id="Capa_1" xmlns="http://www.w3.org/2000/svg" xmlns:xlink="http://www.w3.org/1999/xlink" x="0px" y="0px"
	 height="33" width="33" fill="white" viewBox="0 0 512 512" style="enable-background:new 0 0 512 512;" xml:space="preserve">
<g>
	<g>
		<path d="M316.293,25.01c-33.252-33.252-87.334-33.252-120.586,0L15,204.718l136,135l51.973-51.973
			c29.238-29.238,76.816-29.238,106.055,0L361,339.718l136-135L316.293,25.01z"/>
	</g>
</g>
<g>
	<g>
		<path d="M511.447,232.692L382.211,360.928l125.279,125.28c2.807-5.867,4.51-12.353,4.51-19.279V238.35
			C512,236.429,511.683,234.569,511.447,232.692z"/>
	</g>
</g>
<g>
	<g>
		<path d="M0.555,232.694C0.319,234.571,0,236.429,0,238.35v228.578c0,6.927,1.703,13.413,4.51,19.279l125.279-125.279
			L0.555,232.694z"/>
	</g>
</g>
<g>
	<g>
		<path d="M287.816,308.956c-16.992-16.992-46.64-16.992-63.632,0L25.721,507.419c5.867,2.807,12.352,4.51,19.279,4.51h422
			c6.927,0,13.412-1.703,19.279-4.51L287.816,308.956z"/>
	</g>
</g>
<g>
</g>
<g>
</g>
<g>
</g>
<g>
</g>
<g>
</g>
<g>
</g>
<g>
</g>
<g>
</g>
<g>
</g>
<g>
</g>
<g>
</g>
<g>
</g>
<g>
</g>
<g>
</g>
<g>
</g>
</svg>
